{"asset": {"version": "2.0"}, "buffers": [{"uri": "data:application/octet-stream;base64,", "byteLength": 288960}], "bufferViews": [{"buffer": 0, "byteOffset": 0, "byteLength": 19200}, {"buffer": 0, "byteOffset": 19200, "byteLength": 36504}, {"buffer": 0, "byteOffset": 55704, "byteLength": 116640}, {"buffer": 0, "byteOffset": 172344, "byteLength": 116616}], "accessors": [{"bufferView": 0, "byteOffset": 0, "componentType": 5126, "count": 1600, "type": "VEC3", "min": [35.80599594116211, -34.55522918701172, 43.63471984863281], "max": [68.4101791381836, 5.209003925323486, 46.82132339477539]}, {"bufferView": 1, "byteOffset": 0, "componentType": 5125, "count": 9126, "type": "SCALAR"}, {"bufferView": 2, "byteOffset": 0, "componentType": 5126, "count": 9720, "type": "VEC3", "min": [36.97100067138672, -34.165000915527344, 34.70500183105469], "max": [67.5780029296875, 4.85099983215332, 54.51499938964844]}, {"bufferView": 3, "byteOffset": 0, "componentType": 5126, "count": 9718, "type": "VEC3", "min": [35.10599899291992, -33.67399978637695, 36.28799819946289], "max": [64.99800109863281, 5.668000221252441, 55.60200119018555]}], "meshes": [{"primitives": [{"attributes": {"POSITION": 0}, "indices": 1, "mode": 4, "material": 0}, {"attributes": {"POSITION": 2}, "mode": 0, "material": 1}, {"attributes": {"POSITION": 3}, "mode": 0, "material": 2}]}], "nodes": [{"mesh": 0}], "scenes": [{"nodes": [0]}], "scene": 0, "materials": [{"name": "plane", "pbrMetallicRoughness": {"baseColorFactor": [0.7, 0.7, 0.7, 0.25], "metallicFactor": 0.0, "roughnessFactor": 1.0}, "alphaMode": "BLEND", "doubleSided": true}, {"name": "surface1", "pbrMetallicRoughness": {"baseColorFactor": [0.0, 0.447, 0.741, 1.0], "metallicFactor": 0.0, "roughnessFactor": 1.0}, "emissiveFactor": [0.0, 0.447, 0.741]}, {"name": "surface2", "pbrMetallicRoughness": {"baseColorFactor": [0.85, 0.325, 0.098, 1.0], "metallicFactor": 0.0, "roughnessFactor": 1.0}, "emissiveFactor": [0.85, 0.325, 0.098]}]}